<mxfile host="app.diagrams.net" modified="2021-04-04T11:54:17.402Z" agent="5.0 (Macintosh; Intel Mac OS X 10_15_6) AppleWebKit/537.36 (KHTML, like Gecko) Chrome/89.0.4389.82 Safari/537.36" etag="13tjOHWN5NtZgTyTlSsO" version="14.5.3" type="github" pages="3">
  <diagram id="mTPmO_EP1wIf3XusBCoq" name="Page-1">
    <mxGraphModel dx="1773" dy="482" grid="1" gridSize="10" guides="1" tooltips="1" connect="1" arrows="1" fold="1" page="1" pageScale="1" pageWidth="827" pageHeight="1169" math="0" shadow="0">
      <root>
        <mxCell id="0" />
        <mxCell id="1" parent="0" />
        <mxCell id="Qn_xa09RJaFUliOvTyUV-8" value="空调" style="shape=process;whiteSpace=wrap;html=1;backgroundOutline=1;fillColor=#66B2FF;" parent="1" vertex="1">
          <mxGeometry x="75" y="370" width="160" height="60" as="geometry" />
        </mxCell>
        <mxCell id="Qn_xa09RJaFUliOvTyUV-23" value="" style="points=[[0,0,0],[0.25,0,0],[0.5,0,0],[0.75,0,0],[1,0,0],[1,0.25,0],[1,0.5,0],[1,0.75,0],[1,1,0],[0.75,1,0],[0.5,1,0],[0.25,1,0],[0,1,0],[0,0.75,0],[0,0.5,0],[0,0.25,0]];rounded=1;absoluteArcSize=1;arcSize=2;html=1;strokeColor=none;gradientColor=none;shadow=0;dashed=0;fontSize=12;fontColor=#9E9E9E;align=left;verticalAlign=top;spacing=10;spacingTop=-4;fillColor=#F6F6F6;" parent="1" vertex="1">
          <mxGeometry x="60" y="180" width="190" height="130" as="geometry" />
        </mxCell>
        <mxCell id="Qn_xa09RJaFUliOvTyUV-24" value="环境指数监测及控制展示平台" style="points=[[0,0,0],[0.25,0,0],[0.5,0,0],[0.75,0,0],[1,0,0],[1,0.25,0],[1,0.5,0],[1,0.75,0],[1,1,0],[0.75,1,0],[0.5,1,0],[0.25,1,0],[0,1,0],[0,0.75,0],[0,0.5,0],[0,0.25,0]];rounded=1;absoluteArcSize=1;arcSize=2;html=1;strokeColor=#0e8088;shadow=0;dashed=0;fontSize=12;align=left;verticalAlign=top;spacing=10;spacingTop=-4;fillColor=#b0e3e6;" parent="Qn_xa09RJaFUliOvTyUV-23" vertex="1">
          <mxGeometry width="180" height="120" relative="1" as="geometry">
            <mxPoint x="5" y="5" as="offset" />
          </mxGeometry>
        </mxCell>
        <mxCell id="Qn_xa09RJaFUliOvTyUV-25" value="自动化配置系统" style="points=[[0,0,0],[0.25,0,0],[0.5,0,0],[0.75,0,0],[1,0,0],[1,0.25,0],[1,0.5,0],[1,0.75,0],[1,1,0],[0.75,1,0],[0.5,1,0],[0.25,1,0],[0,1,0],[0,0.75,0],[0,0.5,0],[0,0.25,0]];rounded=1;absoluteArcSize=1;arcSize=2;html=1;strokeColor=#56517e;shadow=0;dashed=0;fontSize=12;align=left;verticalAlign=top;spacing=10;spacingTop=-4;fillColor=#d0cee2;" parent="Qn_xa09RJaFUliOvTyUV-24" vertex="1">
          <mxGeometry width="160" height="90" relative="1" as="geometry">
            <mxPoint x="10" y="30" as="offset" />
          </mxGeometry>
        </mxCell>
        <mxCell id="Qn_xa09RJaFUliOvTyUV-26" value="数据收集" style="points=[[0,0,0],[0.25,0,0],[0.5,0,0],[0.75,0,0],[1,0,0],[1,0.25,0],[1,0.5,0],[1,0.75,0],[1,1,0],[0.75,1,0],[0.5,1,0],[0.25,1,0],[0,1,0],[0,0.75,0],[0,0.5,0],[0,0.25,0]];rounded=1;absoluteArcSize=1;arcSize=2;html=1;strokeColor=#ae4132;shadow=0;dashed=0;fontSize=12;align=center;verticalAlign=top;spacing=10;spacingTop=-4;fillColor=#fad9d5;" parent="Qn_xa09RJaFUliOvTyUV-25" vertex="1">
          <mxGeometry width="120" height="30" relative="1" as="geometry">
            <mxPoint x="10" y="40" as="offset" />
          </mxGeometry>
        </mxCell>
        <mxCell id="Qn_xa09RJaFUliOvTyUV-38" value="" style="shape=flexArrow;endArrow=classic;html=1;endSize=2;startSize=1;fillColor=#b1ddf0;strokeColor=#FFFFFF;entryX=0.542;entryY=1.031;entryDx=0;entryDy=0;entryPerimeter=0;" parent="1" target="Qn_xa09RJaFUliOvTyUV-23" edge="1">
          <mxGeometry width="50" height="50" relative="1" as="geometry">
            <mxPoint x="163" y="360" as="sourcePoint" />
            <mxPoint x="110" y="340" as="targetPoint" />
          </mxGeometry>
        </mxCell>
        <mxCell id="Qn_xa09RJaFUliOvTyUV-39" value="" style="shape=flexArrow;endArrow=classic;html=1;endSize=2;startSize=0;fillColor=#b1ddf0;strokeColor=#FFFFFF;" parent="1" edge="1">
          <mxGeometry width="50" height="50" relative="1" as="geometry">
            <mxPoint x="130" y="320" as="sourcePoint" />
            <mxPoint x="130" y="360" as="targetPoint" />
          </mxGeometry>
        </mxCell>
        <mxCell id="Qn_xa09RJaFUliOvTyUV-52" style="edgeStyle=orthogonalEdgeStyle;rounded=0;orthogonalLoop=1;jettySize=auto;html=1;startSize=0;endSize=2;strokeColor=#10739E;entryX=0;entryY=0.5;entryDx=0;entryDy=0;entryPerimeter=0;" parent="1" source="Qn_xa09RJaFUliOvTyUV-47" target="Qn_xa09RJaFUliOvTyUV-23" edge="1">
          <mxGeometry relative="1" as="geometry">
            <mxPoint x="50" y="249.5" as="targetPoint" />
          </mxGeometry>
        </mxCell>
        <mxCell id="Qn_xa09RJaFUliOvTyUV-47" value="" style="aspect=fixed;html=1;points=[];align=center;image;fontSize=12;image=img/lib/azure2/general/Code.svg;fillColor=#FFB570;" parent="1" vertex="1">
          <mxGeometry x="-77" y="213.75" width="76.93" height="62.5" as="geometry" />
        </mxCell>
        <mxCell id="Qn_xa09RJaFUliOvTyUV-48" style="edgeStyle=orthogonalEdgeStyle;rounded=0;orthogonalLoop=1;jettySize=auto;html=1;startSize=0;endSize=2;strokeColor=#10739E;" parent="1" source="Qn_xa09RJaFUliOvTyUV-49" edge="1">
          <mxGeometry relative="1" as="geometry">
            <mxPoint x="-80" y="250" as="targetPoint" />
          </mxGeometry>
        </mxCell>
        <mxCell id="Qn_xa09RJaFUliOvTyUV-49" value="" style="outlineConnect=0;dashed=0;verticalLabelPosition=bottom;verticalAlign=top;align=center;html=1;shape=mxgraph.aws3.codedeploy;fillColor=#759C3E;gradientColor=none;" parent="1" vertex="1">
          <mxGeometry x="-220" y="209" width="67.5" height="81" as="geometry" />
        </mxCell>
        <mxCell id="Qn_xa09RJaFUliOvTyUV-50" value="selenium" style="text;html=1;align=center;verticalAlign=middle;resizable=0;points=[];autosize=1;" parent="1" vertex="1">
          <mxGeometry x="-68.53999999999999" y="290" width="60" height="20" as="geometry" />
        </mxCell>
        <mxCell id="Qn_xa09RJaFUliOvTyUV-51" value="IDEA" style="text;html=1;align=center;verticalAlign=middle;resizable=0;points=[];autosize=1;" parent="1" vertex="1">
          <mxGeometry x="-206.25" y="290" width="40" height="20" as="geometry" />
        </mxCell>
      </root>
    </mxGraphModel>
  </diagram>
  <diagram id="ak2xTMi557AVtax_2S1t" name="Page-2">
    <mxGraphModel dx="946" dy="482" grid="1" gridSize="10" guides="1" tooltips="1" connect="1" arrows="1" fold="1" page="1" pageScale="1" pageWidth="827" pageHeight="1169" math="0" shadow="0">
      <root>
        <mxCell id="7z0a3pHXTdL5-_gaH5E1-0" />
        <mxCell id="7z0a3pHXTdL5-_gaH5E1-1" parent="7z0a3pHXTdL5-_gaH5E1-0" />
        <mxCell id="7z0a3pHXTdL5-_gaH5E1-5" value="&amp;nbsp; &amp;nbsp; &amp;nbsp; &amp;nbsp; &amp;nbsp; &amp;nbsp; &amp;nbsp; &amp;nbsp; &amp;nbsp; &amp;nbsp; &amp;nbsp; &amp;nbsp; &amp;nbsp; &amp;nbsp; &amp;nbsp;&amp;nbsp;&lt;b&gt;&lt;font style=&quot;font-size: 11px&quot;&gt;&amp;nbsp;。。。。。。&lt;/font&gt;&lt;/b&gt;" style="rounded=0;whiteSpace=wrap;html=1;fillColor=#A9C4EB;" parent="7z0a3pHXTdL5-_gaH5E1-1" vertex="1">
          <mxGeometry x="120" y="360" width="360" height="60" as="geometry" />
        </mxCell>
        <mxCell id="7z0a3pHXTdL5-_gaH5E1-2" value="" style="outlineConnect=0;dashed=0;verticalLabelPosition=bottom;verticalAlign=top;align=center;html=1;shape=mxgraph.aws3.codedeploy;fillColor=#759C3E;gradientColor=none;" parent="7z0a3pHXTdL5-_gaH5E1-1" vertex="1">
          <mxGeometry x="130" y="360" width="57.5" height="60" as="geometry" />
        </mxCell>
        <mxCell id="7z0a3pHXTdL5-_gaH5E1-3" value="" style="outlineConnect=0;dashed=0;verticalLabelPosition=bottom;verticalAlign=top;align=center;html=1;shape=mxgraph.aws3.codedeploy;fillColor=#759C3E;gradientColor=none;" parent="7z0a3pHXTdL5-_gaH5E1-1" vertex="1">
          <mxGeometry x="220" y="360" width="57.5" height="60" as="geometry" />
        </mxCell>
        <mxCell id="7z0a3pHXTdL5-_gaH5E1-4" value="" style="outlineConnect=0;dashed=0;verticalLabelPosition=bottom;verticalAlign=top;align=center;html=1;shape=mxgraph.aws3.codedeploy;fillColor=#759C3E;gradientColor=none;" parent="7z0a3pHXTdL5-_gaH5E1-1" vertex="1">
          <mxGeometry x="414" y="360" width="57.5" height="60" as="geometry" />
        </mxCell>
        <mxCell id="7z0a3pHXTdL5-_gaH5E1-7" value="" style="rounded=0;whiteSpace=wrap;html=1;fillColor=#A9C4EB;" parent="7z0a3pHXTdL5-_gaH5E1-1" vertex="1">
          <mxGeometry x="120" y="230" width="360" height="60" as="geometry" />
        </mxCell>
        <mxCell id="7z0a3pHXTdL5-_gaH5E1-8" value="" style="endArrow=classic;html=1;strokeColor=#10739E;entryX=0.111;entryY=1.017;entryDx=0;entryDy=0;entryPerimeter=0;" parent="7z0a3pHXTdL5-_gaH5E1-1" target="7z0a3pHXTdL5-_gaH5E1-7" edge="1">
          <mxGeometry width="50" height="50" relative="1" as="geometry">
            <mxPoint x="160" y="350" as="sourcePoint" />
            <mxPoint x="160" y="300" as="targetPoint" />
          </mxGeometry>
        </mxCell>
        <mxCell id="7z0a3pHXTdL5-_gaH5E1-9" value="" style="endArrow=classic;html=1;strokeColor=#10739E;" parent="7z0a3pHXTdL5-_gaH5E1-1" edge="1">
          <mxGeometry width="50" height="50" relative="1" as="geometry">
            <mxPoint x="170" y="300" as="sourcePoint" />
            <mxPoint x="170" y="350" as="targetPoint" />
          </mxGeometry>
        </mxCell>
        <mxCell id="7z0a3pHXTdL5-_gaH5E1-10" value="" style="endArrow=classic;html=1;strokeColor=#10739E;entryX=0.111;entryY=1.017;entryDx=0;entryDy=0;entryPerimeter=0;" parent="7z0a3pHXTdL5-_gaH5E1-1" edge="1">
          <mxGeometry width="50" height="50" relative="1" as="geometry">
            <mxPoint x="243.26999999999998" y="348.98" as="sourcePoint" />
            <mxPoint x="243.23000000000002" y="290" as="targetPoint" />
          </mxGeometry>
        </mxCell>
        <mxCell id="7z0a3pHXTdL5-_gaH5E1-11" value="" style="endArrow=classic;html=1;strokeColor=#10739E;" parent="7z0a3pHXTdL5-_gaH5E1-1" edge="1">
          <mxGeometry width="50" height="50" relative="1" as="geometry">
            <mxPoint x="253.26999999999998" y="298.98" as="sourcePoint" />
            <mxPoint x="253.26999999999998" y="348.98" as="targetPoint" />
          </mxGeometry>
        </mxCell>
        <mxCell id="7z0a3pHXTdL5-_gaH5E1-12" value="" style="endArrow=classic;html=1;strokeColor=#10739E;entryX=0.111;entryY=1.017;entryDx=0;entryDy=0;entryPerimeter=0;" parent="7z0a3pHXTdL5-_gaH5E1-1" edge="1">
          <mxGeometry width="50" height="50" relative="1" as="geometry">
            <mxPoint x="437.27" y="348.98" as="sourcePoint" />
            <mxPoint x="437.23" y="290" as="targetPoint" />
          </mxGeometry>
        </mxCell>
        <mxCell id="7z0a3pHXTdL5-_gaH5E1-13" value="" style="endArrow=classic;html=1;strokeColor=#10739E;" parent="7z0a3pHXTdL5-_gaH5E1-1" edge="1">
          <mxGeometry width="50" height="50" relative="1" as="geometry">
            <mxPoint x="447.27" y="298.98" as="sourcePoint" />
            <mxPoint x="447.27" y="348.98" as="targetPoint" />
          </mxGeometry>
        </mxCell>
        <mxCell id="7z0a3pHXTdL5-_gaH5E1-14" value="模型聚合算法" style="rounded=1;whiteSpace=wrap;html=1;fillColor=#fad7ac;strokeColor=#b46504;" parent="7z0a3pHXTdL5-_gaH5E1-1" vertex="1">
          <mxGeometry x="160" y="245" width="90" height="30" as="geometry" />
        </mxCell>
        <mxCell id="7z0a3pHXTdL5-_gaH5E1-15" value="模型的收集与分发" style="rounded=1;whiteSpace=wrap;html=1;fillColor=#fad9d5;strokeColor=#ae4132;" parent="7z0a3pHXTdL5-_gaH5E1-1" vertex="1">
          <mxGeometry x="324" y="245" width="106" height="30" as="geometry" />
        </mxCell>
        <mxCell id="7z0a3pHXTdL5-_gaH5E1-16" value="" style="endArrow=classic;html=1;strokeColor=#10739E;entryX=0;entryY=0.5;entryDx=0;entryDy=0;exitX=1;exitY=0.5;exitDx=0;exitDy=0;" parent="7z0a3pHXTdL5-_gaH5E1-1" source="7z0a3pHXTdL5-_gaH5E1-14" target="7z0a3pHXTdL5-_gaH5E1-15" edge="1">
          <mxGeometry width="50" height="50" relative="1" as="geometry">
            <mxPoint x="253.26999999999998" y="358.98" as="sourcePoint" />
            <mxPoint x="253.23000000000002" y="300" as="targetPoint" />
          </mxGeometry>
        </mxCell>
        <mxCell id="7z0a3pHXTdL5-_gaH5E1-17" value="" style="endArrow=classic;html=1;strokeColor=#10739E;entryX=1;entryY=0.75;entryDx=0;entryDy=0;exitX=0;exitY=0.75;exitDx=0;exitDy=0;" parent="7z0a3pHXTdL5-_gaH5E1-1" source="7z0a3pHXTdL5-_gaH5E1-15" target="7z0a3pHXTdL5-_gaH5E1-14" edge="1">
          <mxGeometry width="50" height="50" relative="1" as="geometry">
            <mxPoint x="260" y="270" as="sourcePoint" />
            <mxPoint x="334" y="270" as="targetPoint" />
          </mxGeometry>
        </mxCell>
        <mxCell id="7z0a3pHXTdL5-_gaH5E1-20" value="本地模型" style="text;html=1;align=center;verticalAlign=middle;resizable=0;points=[];autosize=1;" parent="7z0a3pHXTdL5-_gaH5E1-1" vertex="1">
          <mxGeometry x="270" y="430" width="60" height="20" as="geometry" />
        </mxCell>
      </root>
    </mxGraphModel>
  </diagram>
  <diagram id="MJjDROpwAJnytCPchzUa" name="Page-3">
    <mxGraphModel dx="946" dy="482" grid="1" gridSize="10" guides="1" tooltips="1" connect="1" arrows="1" fold="1" page="1" pageScale="1" pageWidth="827" pageHeight="1169" math="0" shadow="0">
      <root>
        <mxCell id="54Dg-jRQsoiocnFr7WB6-0" />
        <mxCell id="54Dg-jRQsoiocnFr7WB6-1" parent="54Dg-jRQsoiocnFr7WB6-0" />
        <mxCell id="54Dg-jRQsoiocnFr7WB6-21" style="edgeStyle=orthogonalEdgeStyle;rounded=0;orthogonalLoop=1;jettySize=auto;html=1;entryX=1;entryY=0.25;entryDx=0;entryDy=0;exitX=1;exitY=0.5;exitDx=0;exitDy=0;" parent="54Dg-jRQsoiocnFr7WB6-1" source="54Dg-jRQsoiocnFr7WB6-2" target="54Dg-jRQsoiocnFr7WB6-7" edge="1">
          <mxGeometry relative="1" as="geometry">
            <mxPoint x="520" y="180" as="targetPoint" />
          </mxGeometry>
        </mxCell>
        <mxCell id="54Dg-jRQsoiocnFr7WB6-2" value="介绍课题的研究背景与现状，针对现有空调智能控制中的隐私安全、模型效果差等问题，提出隐私安全的空调智能控制模型框架。" style="rounded=0;whiteSpace=wrap;html=1;" parent="54Dg-jRQsoiocnFr7WB6-1" vertex="1">
          <mxGeometry x="200" y="120" width="310" height="60" as="geometry" />
        </mxCell>
        <mxCell id="54Dg-jRQsoiocnFr7WB6-14" style="edgeStyle=orthogonalEdgeStyle;rounded=0;orthogonalLoop=1;jettySize=auto;html=1;" parent="54Dg-jRQsoiocnFr7WB6-1" source="54Dg-jRQsoiocnFr7WB6-3" target="54Dg-jRQsoiocnFr7WB6-2" edge="1">
          <mxGeometry relative="1" as="geometry" />
        </mxCell>
        <mxCell id="54Dg-jRQsoiocnFr7WB6-3" value="第一章" style="rounded=1;whiteSpace=wrap;html=1;" parent="54Dg-jRQsoiocnFr7WB6-1" vertex="1">
          <mxGeometry x="70" y="130" width="90" height="40" as="geometry" />
        </mxCell>
        <mxCell id="54Dg-jRQsoiocnFr7WB6-15" style="edgeStyle=orthogonalEdgeStyle;rounded=0;orthogonalLoop=1;jettySize=auto;html=1;entryX=0;entryY=0.5;entryDx=0;entryDy=0;" parent="54Dg-jRQsoiocnFr7WB6-1" source="54Dg-jRQsoiocnFr7WB6-4" target="54Dg-jRQsoiocnFr7WB6-7" edge="1">
          <mxGeometry relative="1" as="geometry" />
        </mxCell>
        <mxCell id="54Dg-jRQsoiocnFr7WB6-4" value="第二章" style="rounded=1;whiteSpace=wrap;html=1;" parent="54Dg-jRQsoiocnFr7WB6-1" vertex="1">
          <mxGeometry x="70" y="200" width="90" height="40" as="geometry" />
        </mxCell>
        <mxCell id="PMFoqHtSDj0fFw_d9du--18" style="edgeStyle=orthogonalEdgeStyle;rounded=0;orthogonalLoop=1;jettySize=auto;html=1;entryX=1;entryY=0.25;entryDx=0;entryDy=0;exitX=1;exitY=0.5;exitDx=0;exitDy=0;" edge="1" parent="54Dg-jRQsoiocnFr7WB6-1" source="54Dg-jRQsoiocnFr7WB6-7" target="PMFoqHtSDj0fFw_d9du--16">
          <mxGeometry relative="1" as="geometry" />
        </mxCell>
        <mxCell id="54Dg-jRQsoiocnFr7WB6-7" value="对提出的空调智能控制模型所用的相关算法和技术进行介绍，为第4章节深度强化学习模型提出做铺垫。" style="rounded=0;whiteSpace=wrap;html=1;" parent="54Dg-jRQsoiocnFr7WB6-1" vertex="1">
          <mxGeometry x="200" y="195" width="310" height="50" as="geometry" />
        </mxCell>
        <mxCell id="PMFoqHtSDj0fFw_d9du--0" style="edgeStyle=orthogonalEdgeStyle;rounded=0;orthogonalLoop=1;jettySize=auto;html=1;" edge="1" parent="54Dg-jRQsoiocnFr7WB6-1" source="PMFoqHtSDj0fFw_d9du--1" target="PMFoqHtSDj0fFw_d9du--7">
          <mxGeometry relative="1" as="geometry" />
        </mxCell>
        <mxCell id="PMFoqHtSDj0fFw_d9du--1" value="第四章" style="rounded=1;whiteSpace=wrap;html=1;" vertex="1" parent="54Dg-jRQsoiocnFr7WB6-1">
          <mxGeometry x="70" y="325" width="90" height="40" as="geometry" />
        </mxCell>
        <mxCell id="PMFoqHtSDj0fFw_d9du--2" style="edgeStyle=orthogonalEdgeStyle;rounded=0;orthogonalLoop=1;jettySize=auto;html=1;entryX=0;entryY=0.5;entryDx=0;entryDy=0;" edge="1" parent="54Dg-jRQsoiocnFr7WB6-1" source="PMFoqHtSDj0fFw_d9du--3" target="PMFoqHtSDj0fFw_d9du--5">
          <mxGeometry relative="1" as="geometry" />
        </mxCell>
        <mxCell id="PMFoqHtSDj0fFw_d9du--3" value="第五章" style="rounded=1;whiteSpace=wrap;html=1;" vertex="1" parent="54Dg-jRQsoiocnFr7WB6-1">
          <mxGeometry x="70" y="385" width="90" height="40" as="geometry" />
        </mxCell>
        <mxCell id="PMFoqHtSDj0fFw_d9du--4" style="edgeStyle=orthogonalEdgeStyle;rounded=0;orthogonalLoop=1;jettySize=auto;html=1;entryX=1;entryY=0.25;entryDx=0;entryDy=0;exitX=1;exitY=0.5;exitDx=0;exitDy=0;" edge="1" parent="54Dg-jRQsoiocnFr7WB6-1" source="PMFoqHtSDj0fFw_d9du--5" target="PMFoqHtSDj0fFw_d9du--13">
          <mxGeometry relative="1" as="geometry" />
        </mxCell>
        <mxCell id="PMFoqHtSDj0fFw_d9du--5" value="利用联邦学习框架实现多个深度强化学习智能控制模型的安全联合训练" style="rounded=0;whiteSpace=wrap;html=1;" vertex="1" parent="54Dg-jRQsoiocnFr7WB6-1">
          <mxGeometry x="200" y="380" width="310" height="50" as="geometry" />
        </mxCell>
        <mxCell id="PMFoqHtSDj0fFw_d9du--6" style="edgeStyle=orthogonalEdgeStyle;rounded=0;orthogonalLoop=1;jettySize=auto;html=1;entryX=1;entryY=0.25;entryDx=0;entryDy=0;exitX=1;exitY=0.5;exitDx=0;exitDy=0;" edge="1" parent="54Dg-jRQsoiocnFr7WB6-1" source="PMFoqHtSDj0fFw_d9du--7" target="PMFoqHtSDj0fFw_d9du--5">
          <mxGeometry relative="1" as="geometry" />
        </mxCell>
        <mxCell id="PMFoqHtSDj0fFw_d9du--7" value="使用第二章介绍的深度强化学习算法中深度Q网络算法建立空调智能控制模型" style="rounded=0;whiteSpace=wrap;html=1;" vertex="1" parent="54Dg-jRQsoiocnFr7WB6-1">
          <mxGeometry x="200" y="320" width="310" height="50" as="geometry" />
        </mxCell>
        <mxCell id="PMFoqHtSDj0fFw_d9du--8" style="edgeStyle=orthogonalEdgeStyle;rounded=0;orthogonalLoop=1;jettySize=auto;html=1;" edge="1" parent="54Dg-jRQsoiocnFr7WB6-1" source="PMFoqHtSDj0fFw_d9du--9" target="PMFoqHtSDj0fFw_d9du--13">
          <mxGeometry relative="1" as="geometry" />
        </mxCell>
        <mxCell id="PMFoqHtSDj0fFw_d9du--9" value="第六章" style="rounded=1;whiteSpace=wrap;html=1;" vertex="1" parent="54Dg-jRQsoiocnFr7WB6-1">
          <mxGeometry x="70" y="445" width="90" height="40" as="geometry" />
        </mxCell>
        <mxCell id="PMFoqHtSDj0fFw_d9du--10" style="edgeStyle=orthogonalEdgeStyle;rounded=0;orthogonalLoop=1;jettySize=auto;html=1;entryX=0;entryY=0.5;entryDx=0;entryDy=0;" edge="1" parent="54Dg-jRQsoiocnFr7WB6-1" source="PMFoqHtSDj0fFw_d9du--11" target="PMFoqHtSDj0fFw_d9du--14">
          <mxGeometry relative="1" as="geometry" />
        </mxCell>
        <mxCell id="PMFoqHtSDj0fFw_d9du--11" value="第七章" style="rounded=1;whiteSpace=wrap;html=1;" vertex="1" parent="54Dg-jRQsoiocnFr7WB6-1">
          <mxGeometry x="70" y="505" width="90" height="40" as="geometry" />
        </mxCell>
        <mxCell id="PMFoqHtSDj0fFw_d9du--12" style="edgeStyle=orthogonalEdgeStyle;rounded=0;orthogonalLoop=1;jettySize=auto;html=1;entryX=1;entryY=0.25;entryDx=0;entryDy=0;exitX=1;exitY=0.5;exitDx=0;exitDy=0;" edge="1" parent="54Dg-jRQsoiocnFr7WB6-1" source="PMFoqHtSDj0fFw_d9du--13" target="PMFoqHtSDj0fFw_d9du--14">
          <mxGeometry relative="1" as="geometry" />
        </mxCell>
        <mxCell id="PMFoqHtSDj0fFw_d9du--13" value="通过将模型应用到实际环境中，实现空调对自动化智能控制，对模型效果进行验证" style="rounded=0;whiteSpace=wrap;html=1;" vertex="1" parent="54Dg-jRQsoiocnFr7WB6-1">
          <mxGeometry x="200" y="440" width="310" height="50" as="geometry" />
        </mxCell>
        <mxCell id="PMFoqHtSDj0fFw_d9du--14" value="对本文内容进行总结，并对未来发展方向进行展望" style="rounded=0;whiteSpace=wrap;html=1;" vertex="1" parent="54Dg-jRQsoiocnFr7WB6-1">
          <mxGeometry x="200" y="500" width="310" height="50" as="geometry" />
        </mxCell>
        <mxCell id="PMFoqHtSDj0fFw_d9du--17" style="edgeStyle=orthogonalEdgeStyle;rounded=0;orthogonalLoop=1;jettySize=auto;html=1;entryX=0;entryY=0.5;entryDx=0;entryDy=0;" edge="1" parent="54Dg-jRQsoiocnFr7WB6-1" source="PMFoqHtSDj0fFw_d9du--15" target="PMFoqHtSDj0fFw_d9du--16">
          <mxGeometry relative="1" as="geometry" />
        </mxCell>
        <mxCell id="PMFoqHtSDj0fFw_d9du--15" value="第三章" style="rounded=1;whiteSpace=wrap;html=1;" vertex="1" parent="54Dg-jRQsoiocnFr7WB6-1">
          <mxGeometry x="70" y="260" width="90" height="40" as="geometry" />
        </mxCell>
        <mxCell id="PMFoqHtSDj0fFw_d9du--19" style="edgeStyle=orthogonalEdgeStyle;rounded=0;orthogonalLoop=1;jettySize=auto;html=1;entryX=1;entryY=0.25;entryDx=0;entryDy=0;exitX=1;exitY=0.5;exitDx=0;exitDy=0;" edge="1" parent="54Dg-jRQsoiocnFr7WB6-1" source="PMFoqHtSDj0fFw_d9du--16" target="PMFoqHtSDj0fFw_d9du--7">
          <mxGeometry relative="1" as="geometry" />
        </mxCell>
        <mxCell id="PMFoqHtSDj0fFw_d9du--16" value="对提出的基于联邦学习对空调智能控制模型框架进行整体需求分析，介绍了各模块对功能实现。" style="rounded=0;whiteSpace=wrap;html=1;" vertex="1" parent="54Dg-jRQsoiocnFr7WB6-1">
          <mxGeometry x="200" y="255" width="310" height="50" as="geometry" />
        </mxCell>
      </root>
    </mxGraphModel>
  </diagram>
</mxfile>
